<?xml version="1.0" standalone="no"?>
<!DOCTYPE svg PUBLIC "-//W3C//DTD SVG 20010904//EN"
 "http://www.w3.org/TR/2001/REC-SVG-20010904/DTD/svg10.dtd">
<svg version="1.0" xmlns="http://www.w3.org/2000/svg"
 width="392.000000pt" height="392.000000pt" viewBox="0 0 392.000000 392.000000"
 preserveAspectRatio="xMidYMid meet">
<metadata>
Created by potrace 1.11, written by Peter Selinger 2001-2013
</metadata>
<g transform="translate(0.000000,392.000000) scale(0.100000,-0.100000)"
fill="#000000" stroke="none">
<path d="M250 1960 l0 -1960 330 0 330 0 -1 877 -1 878 323 5 c178 4 337 10
353 16 17 6 56 7 95 2 36 -4 141 -10 233 -14 164 -7 167 -6 200 17 134 95 361
356 432 497 44 86 83 210 101 317 l18 100 76 56 c42 31 130 96 196 144 66 48
126 92 132 97 13 10 14 -48 13 -937 -1 -400 -1 -2029 0 -2042 0 -10 66 -13
295 -13 l295 0 0 1960 0 1960 -339 0 -339 0 -214 -148 c-222 -154 -287 -197
-292 -191 -1 2 -13 20 -26 39 -26 38 -148 191 -204 255 l-35 40 -985 3 -986 2
0 -1960z m2274 1504 c28 -60 75 -225 100 -346 17 -80 23 -383 8 -404 -4 -5
-38 -32 -77 -60 -68 -48 -143 -103 -321 -234 -48 -36 -124 -91 -168 -122 -84
-60 -118 -85 -301 -218 -60 -44 -115 -78 -121 -76 -10 4 -243 173 -626 455
l-117 86 -2 205 c-3 249 2 684 7 689 2 2 56 -36 120 -85 64 -49 145 -109 180
-134 35 -25 143 -103 239 -173 97 -71 179 -127 183 -125 5 2 66 44 138 95 580
413 720 511 726 507 4 -2 18 -29 32 -60z"/>
<path d="M985 2510 c3 -5 8 -10 11 -10 2 0 4 5 4 10 0 6 -5 10 -11 10 -5 0 -7
-4 -4 -10z"/>
</g>
</svg>
